<svg id="svg" version="1.1" xmlns="http://www.w3.org/2000/svg" xmlns:xlink="http://www.w3.org/1999/xlink" width="400" height="494.68599033816423" viewBox="0, 0, 400,494.68599033816423"><g id="svgg"><path id="path0" d="M49.018 75.700 C 48.856 82.795,48.666 89.320,48.597 90.200 C 48.527 91.080,48.417 95.130,48.352 99.200 L 48.235 106.600 93.492 106.702 L 138.748 106.803 138.884 102.502 C 138.959 100.136,139.061 92.170,139.112 84.800 C 139.163 77.430,139.319 69.465,139.459 67.100 L 139.714 62.800 94.513 62.800 L 49.311 62.800 49.018 75.700 M260.001 73.100 C 260.001 78.765,260.120 88.665,260.265 95.100 L 260.529 106.800 279.225 106.800 L 297.921 106.800 298.152 111.300 C 298.280 113.775,298.474 120.030,298.584 125.200 C 298.694 130.370,298.905 139.865,299.052 146.300 L 299.321 158.000 325.794 158.000 C 340.354 158.000,352.342 157.925,352.433 157.834 C 352.525 157.743,352.484 153.828,352.343 149.134 C 351.757 129.705,351.569 123.090,351.199 109.000 C 350.986 100.860,350.723 91.590,350.614 88.400 C 350.506 85.210,350.314 78.640,350.187 73.800 C 350.060 68.960,349.862 64.505,349.746 63.900 L 349.536 62.800 304.768 62.800 L 260.000 62.800 260.001 73.100 M48.196 113.207 C 48.029 113.477,47.686 122.233,47.200 138.600 C 46.985 145.860,46.720 154.410,46.611 157.600 C 46.503 160.790,46.317 168.080,46.198 173.800 C 46.080 179.520,45.900 186.630,45.800 189.600 C 45.435 200.392,45.266 222.385,45.591 216.800 C 45.764 213.830,45.927 211.175,45.953 210.900 C 45.990 210.501,77.052 210.400,199.800 210.400 L 353.600 210.400 353.654 214.100 C 353.684 216.135,353.842 220.590,354.005 224.000 C 354.232 228.728,354.264 227.635,354.142 219.400 C 353.922 204.575,353.188 176.095,352.865 169.896 L 352.600 164.791 260.641 164.797 L 168.681 164.803 168.841 139.102 L 169.000 113.400 108.662 113.200 C 75.476 113.090,48.266 113.093,48.196 113.207 M230.136 122.865 C 230.281 128.180,230.400 138.260,230.400 145.265 L 230.400 158.000 260.972 158.000 L 291.545 158.000 291.371 148.700 C 291.276 143.585,291.088 133.505,290.953 126.300 L 290.708 113.200 260.290 113.200 L 229.872 113.200 230.136 122.865 M137.061 216.900 C 136.612 217.625,136.559 219.082,136.785 224.400 L 137.066 231.000 137.133 223.900 L 137.200 216.800 153.000 216.800 C 163.267 216.800,168.800 216.660,168.800 216.400 C 168.800 216.140,163.336 216.000,153.209 216.000 L 137.618 216.000 137.061 216.900 M230.444 216.547 C 230.119 216.939,230.021 221.336,230.100 232.047 L 230.210 247.000 230.305 231.900 L 230.400 216.800 246.200 216.800 L 262.000 216.800 262.081 220.300 L 262.163 223.800 262.298 220.461 C 262.385 218.319,262.267 216.921,261.968 216.561 C 261.286 215.740,231.125 215.726,230.444 216.547 M169.314 218.600 C 169.317 219.700,169.395 220.103,169.487 219.495 C 169.579 218.886,169.577 217.986,169.482 217.495 C 169.387 217.003,169.311 217.500,169.314 218.600 " stroke="none" fill="#53ce58" fill-rule="evenodd"></path><path id="path1" d="M259.731 65.400 C 259.733 66.940,259.805 67.521,259.892 66.691 C 259.979 65.861,259.977 64.601,259.889 63.891 C 259.800 63.181,259.729 63.860,259.731 65.400 M350.140 70.800 C 350.140 72.670,350.209 73.435,350.293 72.500 C 350.377 71.565,350.377 70.035,350.293 69.100 C 350.209 68.165,350.140 68.930,350.140 70.800 M139.348 72.000 C 139.348 74.310,139.414 75.255,139.495 74.100 C 139.576 72.945,139.576 71.055,139.495 69.900 C 139.414 68.745,139.348 69.690,139.348 72.000 M48.937 73.800 C 48.939 75.560,49.009 76.230,49.093 75.289 C 49.178 74.349,49.177 72.909,49.091 72.089 C 49.005 71.270,48.936 72.040,48.937 73.800 M350.520 84.400 C 350.520 85.610,350.595 86.105,350.687 85.500 C 350.778 84.895,350.778 83.905,350.687 83.300 C 350.595 82.695,350.520 83.190,350.520 84.400 M48.514 87.800 C 48.517 88.900,48.595 89.303,48.687 88.695 C 48.779 88.086,48.777 87.186,48.682 86.695 C 48.587 86.203,48.511 86.700,48.514 87.800 M260.148 95.200 C 260.148 97.510,260.214 98.455,260.295 97.300 C 260.376 96.145,260.376 94.255,260.295 93.100 C 260.214 91.945,260.148 92.890,260.148 95.200 M350.893 96.400 C 350.893 97.170,350.975 97.485,351.076 97.100 C 351.176 96.715,351.176 96.085,351.076 95.700 C 350.975 95.315,350.893 95.630,350.893 96.400 M350.914 99.800 C 350.917 100.900,350.995 101.303,351.087 100.695 C 351.179 100.086,351.177 99.186,351.082 98.695 C 350.987 98.203,350.911 98.700,350.914 99.800 M48.140 101.600 C 48.140 103.470,48.209 104.235,48.293 103.300 C 48.377 102.365,48.377 100.835,48.293 99.900 C 48.209 98.965,48.140 99.730,48.140 101.600 M138.948 102.800 C 138.948 105.110,139.014 106.055,139.095 104.900 C 139.176 103.745,139.176 101.855,139.095 100.700 C 139.014 99.545,138.948 100.490,138.948 102.800 M351.340 113.600 C 351.340 115.470,351.409 116.235,351.493 115.300 C 351.577 114.365,351.577 112.835,351.493 111.900 C 351.409 110.965,351.340 111.730,351.340 113.600 M47.724 115.400 C 47.726 116.720,47.801 117.212,47.890 116.493 C 47.979 115.774,47.977 114.694,47.886 114.093 C 47.795 113.492,47.722 114.080,47.724 115.400 M351.740 126.400 C 351.740 128.270,351.809 129.035,351.893 128.100 C 351.977 127.165,351.977 125.635,351.893 124.700 C 351.809 123.765,351.740 124.530,351.740 126.400 M47.340 129.200 C 47.340 131.070,47.409 131.835,47.493 130.900 C 47.577 129.965,47.577 128.435,47.493 127.500 C 47.409 126.565,47.340 127.330,47.340 129.200 M230.169 134.000 C 230.169 138.510,230.227 140.355,230.298 138.100 C 230.370 135.845,230.370 132.155,230.298 129.900 C 230.227 127.645,230.169 129.490,230.169 134.000 M168.982 141.800 C 168.982 150.380,169.035 153.833,169.100 149.474 C 169.164 145.114,169.164 138.094,169.099 133.874 C 169.035 129.653,168.982 133.220,168.982 141.800 M352.151 140.000 C 352.151 142.530,352.216 143.565,352.296 142.300 C 352.375 141.035,352.375 138.965,352.296 137.700 C 352.216 136.435,352.151 137.470,352.151 140.000 M46.940 141.600 C 46.940 143.470,47.009 144.235,47.093 143.300 C 47.177 142.365,47.177 140.835,47.093 139.900 C 47.009 138.965,46.940 139.730,46.940 141.600 M298.093 143.200 C 298.093 143.970,298.175 144.285,298.276 143.900 C 298.376 143.515,298.376 142.885,298.276 142.500 C 298.175 142.115,298.093 142.430,298.093 143.200 M230.114 144.600 C 230.117 145.700,230.195 146.103,230.287 145.495 C 230.379 144.886,230.377 143.986,230.282 143.495 C 230.187 143.003,230.111 143.500,230.114 144.600 M291.911 143.444 C 291.752 143.688,291.604 147.063,291.581 150.944 L 291.540 158.000 260.970 158.000 L 230.400 158.000 230.400 161.205 L 230.400 164.410 199.600 164.305 C 182.660 164.247,168.800 164.336,168.800 164.502 C 168.800 164.668,210.155 164.801,260.700 164.797 L 352.600 164.791 352.823 168.695 C 352.949 170.915,353.079 171.721,353.123 170.563 C 353.165 169.443,353.084 166.113,352.943 163.163 L 352.686 157.800 325.986 157.906 L 299.286 158.011 298.999 151.505 L 298.712 144.998 295.586 145.140 L 292.461 145.282 292.331 144.141 C 292.257 143.496,292.074 143.193,291.911 143.444 M352.540 154.000 C 352.540 155.870,352.609 156.635,352.693 155.700 C 352.777 154.765,352.777 153.235,352.693 152.300 C 352.609 151.365,352.540 152.130,352.540 154.000 M46.540 154.400 C 46.540 156.270,46.609 157.035,46.693 156.100 C 46.777 155.165,46.777 153.635,46.693 152.700 C 46.609 151.765,46.540 152.530,46.540 154.400 M46.140 169.600 C 46.140 171.470,46.209 172.235,46.293 171.300 C 46.377 170.365,46.377 168.835,46.293 167.900 C 46.209 166.965,46.140 167.730,46.140 169.600 M353.340 181.600 C 353.340 183.470,353.409 184.235,353.493 183.300 C 353.577 182.365,353.577 180.835,353.493 179.900 C 353.409 178.965,353.340 179.730,353.340 181.600 M45.742 185.000 C 45.741 186.980,45.808 187.840,45.892 186.912 C 45.976 185.984,45.977 184.364,45.895 183.312 C 45.812 182.260,45.743 183.020,45.742 185.000 M353.753 195.800 C 353.753 198.440,353.818 199.468,353.897 198.084 C 353.975 196.701,353.974 194.541,353.895 193.284 C 353.816 192.028,353.752 193.160,353.753 195.800 M44.866 211.100 C 44.602 220.505,44.273 231.663,44.134 235.896 L 43.881 243.592 63.241 243.696 L 82.600 243.800 82.441 257.094 L 82.281 270.389 109.379 270.494 C 124.283 270.552,136.560 270.464,136.663 270.299 C 136.765 270.133,137.019 258.253,137.228 243.899 C 137.437 229.544,137.690 217.575,137.791 217.300 C 137.892 217.025,137.801 216.800,137.587 216.800 C 137.355 216.800,137.173 219.633,137.133 223.900 L 137.066 231.000 136.785 224.400 C 136.559 219.082,136.612 217.625,137.061 216.900 L 137.618 216.000 153.209 216.000 C 163.211 216.000,168.800 216.142,168.800 216.395 C 168.800 216.647,163.237 216.830,153.500 216.900 L 138.200 217.010 153.495 217.105 L 168.789 217.200 168.695 243.900 L 168.600 270.600 199.700 270.702 L 230.800 270.805 230.715 252.302 C 230.659 240.142,230.551 236.062,230.400 240.400 C 230.227 245.373,230.149 243.298,230.085 231.980 C 230.021 220.734,230.121 216.839,230.480 216.480 C 231.254 215.706,261.336 215.800,261.982 216.578 C 262.340 217.010,262.391 219.016,262.181 224.478 C 261.924 231.140,262.581 300.833,262.993 310.800 C 263.089 313.110,263.175 317.295,263.184 320.100 L 263.200 325.200 310.400 325.200 L 357.600 325.200 357.594 324.100 C 357.591 323.495,357.414 317.150,357.200 310.000 C 356.987 302.850,356.545 286.920,356.218 274.600 C 355.488 247.123,355.255 239.428,354.588 220.800 L 354.065 206.200 354.179 218.200 C 354.266 227.365,354.224 228.735,354.000 224.000 C 353.840 220.590,353.684 216.135,353.654 214.100 L 353.600 210.400 199.800 210.400 C 77.052 210.400,45.990 210.501,45.953 210.900 C 45.927 211.175,45.765 213.830,45.593 216.800 C 45.396 220.200,45.353 216.977,45.478 208.100 C 45.587 200.345,45.602 194.000,45.512 194.000 C 45.421 194.000,45.131 201.695,44.866 211.100 M169.487 219.495 C 169.395 220.103,169.317 219.700,169.314 218.600 C 169.311 217.500,169.387 217.003,169.482 217.495 C 169.577 217.986,169.579 218.886,169.487 219.495 M238.926 217.100 C 243.066 217.165,249.726 217.165,253.726 217.099 C 257.727 217.034,254.340 216.981,246.200 216.981 C 238.060 216.981,234.787 217.034,238.926 217.100 M261.516 218.900 C 261.709 222.421,261.888 222.754,261.946 219.700 C 261.975 218.105,261.865 216.800,261.700 216.800 C 261.535 216.800,261.452 217.745,261.516 218.900 M43.814 250.900 C 43.726 251.175,43.458 259.320,43.219 269.000 C 42.980 278.680,42.701 288.940,42.600 291.800 C 42.498 294.660,42.322 300.240,42.207 304.200 C 42.093 308.160,41.889 314.550,41.753 318.400 L 41.506 325.400 88.753 325.297 L 136.000 325.193 136.010 322.097 C 136.015 320.394,136.129 315.896,136.264 312.102 L 136.508 305.205 104.954 305.102 L 73.400 305.000 73.422 301.000 C 73.452 295.697,74.336 263.326,74.648 256.100 L 74.894 250.400 59.435 250.400 C 47.419 250.400,43.939 250.511,43.814 250.900 M81.909 287.500 C 81.801 292.945,81.788 297.535,81.880 297.700 C 81.972 297.865,94.277 298.000,109.224 298.000 L 136.400 298.000 136.401 293.500 C 136.402 291.025,136.520 286.435,136.664 283.300 L 136.924 277.600 109.515 277.600 L 82.105 277.600 81.909 287.500 " stroke="none" fill="#249025" fill-rule="evenodd"></path><path id="path2" d="M71.700 62.700 C 84.185 62.759,104.615 62.759,117.100 62.700 C 129.585 62.641,119.370 62.593,94.400 62.593 C 69.430 62.593,59.215 62.641,71.700 62.700 M259.339 63.016 C 259.208 63.356,259.213 63.747,259.351 63.884 C 259.488 64.021,259.600 63.833,259.600 63.467 C 259.600 62.848,262.879 62.800,304.781 62.800 L 349.962 62.800 350.112 65.202 L 350.262 67.604 350.231 65.102 L 350.200 62.600 304.888 62.498 C 264.302 62.407,259.551 62.461,259.339 63.016 M48.937 67.800 C 48.939 69.560,49.009 70.230,49.093 69.289 C 49.178 68.349,49.177 66.909,49.091 66.089 C 49.005 65.270,48.936 66.040,48.937 67.800 M259.777 79.600 C 259.777 86.090,259.832 88.745,259.899 85.500 C 259.966 82.255,259.966 76.945,259.899 73.700 C 259.832 70.455,259.777 73.110,259.777 79.600 M139.367 83.600 C 139.367 87.890,139.426 89.645,139.498 87.500 C 139.570 85.355,139.570 81.845,139.498 79.700 C 139.426 77.555,139.367 79.310,139.367 83.600 M350.537 79.400 C 350.539 81.160,350.609 81.830,350.693 80.889 C 350.778 79.949,350.777 78.509,350.691 77.689 C 350.605 76.870,350.536 77.640,350.537 79.400 M48.537 83.000 C 48.539 84.760,48.609 85.430,48.693 84.489 C 48.778 83.549,48.777 82.109,48.691 81.289 C 48.605 80.470,48.536 81.240,48.537 83.000 M48.153 93.800 C 48.153 96.440,48.218 97.468,48.297 96.084 C 48.375 94.701,48.374 92.541,48.295 91.284 C 48.216 90.028,48.152 91.160,48.153 93.800 M350.914 93.400 C 350.917 94.500,350.995 94.903,351.087 94.295 C 351.179 93.686,351.177 92.786,351.082 92.295 C 350.987 91.803,350.911 92.300,350.914 93.400 M260.089 105.895 L 260.000 112.790 244.900 112.900 L 229.800 113.010 244.913 113.105 C 256.943 113.181,260.065 113.095,260.223 112.685 C 260.332 112.401,260.366 109.206,260.300 105.585 L 260.179 99.000 260.089 105.895 M47.761 107.200 C 47.761 110.610,47.822 112.005,47.897 110.300 C 47.972 108.595,47.972 105.805,47.897 104.100 C 47.822 102.395,47.761 103.790,47.761 107.200 M351.337 107.400 C 351.339 109.160,351.409 109.830,351.493 108.889 C 351.578 107.949,351.577 106.509,351.491 105.689 C 351.405 104.870,351.336 105.640,351.337 107.400 M138.973 109.899 L 139.000 113.000 154.090 113.105 L 169.181 113.210 169.305 119.805 L 169.430 126.401 169.415 119.700 L 169.400 113.000 154.317 112.895 L 139.233 112.790 139.090 109.794 L 138.946 106.797 138.973 109.899 M351.754 118.400 C 351.754 121.150,351.818 122.275,351.896 120.900 C 351.974 119.525,351.974 117.275,351.896 115.900 C 351.818 114.525,351.754 115.650,351.754 118.400 M47.353 121.400 C 47.353 124.040,47.418 125.068,47.497 123.684 C 47.575 122.301,47.574 120.141,47.495 118.884 C 47.416 117.628,47.352 118.760,47.353 121.400 M352.154 130.800 C 352.154 133.550,352.218 134.675,352.296 133.300 C 352.374 131.925,352.374 129.675,352.296 128.300 C 352.218 126.925,352.154 128.050,352.154 130.800 M46.951 134.000 C 46.951 136.530,47.016 137.565,47.096 136.300 C 47.175 135.035,47.175 132.965,47.096 131.700 C 47.016 130.435,46.951 131.470,46.951 134.000 M352.554 146.000 C 352.554 148.750,352.618 149.875,352.696 148.500 C 352.774 147.125,352.774 144.875,352.696 143.500 C 352.618 142.125,352.554 143.250,352.554 146.000 M46.540 148.000 C 46.540 149.870,46.609 150.635,46.693 149.700 C 46.777 148.765,46.777 147.235,46.693 146.300 C 46.609 145.365,46.540 146.130,46.540 148.000 M230.154 151.200 C 230.154 153.950,230.218 155.075,230.296 153.700 C 230.374 152.325,230.374 150.075,230.296 148.700 C 230.218 147.325,230.154 148.450,230.154 151.200 M230.144 160.000 C 230.144 162.090,230.212 162.945,230.294 161.900 C 230.376 160.855,230.376 159.145,230.294 158.100 C 230.212 157.055,230.144 157.910,230.144 160.000 M352.948 160.800 C 352.948 163.110,353.014 164.055,353.095 162.900 C 353.176 161.745,353.176 159.855,353.095 158.700 C 353.014 157.545,352.948 158.490,352.948 160.800 M168.942 160.600 C 168.941 162.580,169.008 163.440,169.092 162.512 C 169.176 161.584,169.177 159.964,169.095 158.912 C 169.012 157.860,168.943 158.620,168.942 160.600 M46.140 163.200 C 46.140 165.070,46.209 165.835,46.293 164.900 C 46.377 163.965,46.377 162.435,46.293 161.500 C 46.209 160.565,46.140 161.330,46.140 163.200 M45.742 175.800 C 45.741 177.780,45.808 178.640,45.892 177.712 C 45.976 176.784,45.977 175.164,45.895 174.112 C 45.812 173.060,45.743 173.820,45.742 175.800 M353.337 175.400 C 353.339 177.160,353.409 177.830,353.493 176.889 C 353.578 175.949,353.577 174.509,353.491 173.689 C 353.405 172.870,353.336 173.640,353.337 175.400 M45.361 188.000 C 45.361 191.410,45.422 192.805,45.497 191.100 C 45.572 189.395,45.572 186.605,45.497 184.900 C 45.422 183.195,45.361 184.590,45.361 188.000 M353.740 188.000 C 353.740 189.870,353.809 190.635,353.893 189.700 C 353.977 188.765,353.977 187.235,353.893 186.300 C 353.809 185.365,353.740 186.130,353.740 188.000 M354.121 199.400 C 354.109 202.260,354.225 207.840,354.378 211.800 C 354.656 218.981,354.657 218.986,354.680 213.600 C 354.692 210.630,354.576 205.050,354.422 201.200 C 354.146 194.311,354.141 194.283,354.121 199.400 M44.954 201.600 C 44.954 204.350,45.018 205.475,45.096 204.100 C 45.174 202.725,45.174 200.475,45.096 199.100 C 45.018 197.725,44.954 198.850,44.954 201.600 M44.553 214.600 C 44.553 217.240,44.618 218.268,44.697 216.884 C 44.775 215.501,44.774 213.341,44.695 212.084 C 44.616 210.828,44.552 211.960,44.553 214.600 M137.768 217.340 C 137.654 217.637,137.617 219.122,137.685 220.640 L 137.810 223.400 138.005 220.099 C 138.200 216.803,138.158 216.322,137.768 217.340 M261.034 217.200 C 261.228 217.530,261.500 225.810,261.640 235.600 L 261.895 253.400 261.848 235.520 C 261.808 220.774,261.702 217.549,261.241 217.120 C 260.777 216.688,260.742 216.701,261.034 217.200 M168.571 226.000 C 168.571 230.950,168.628 232.975,168.699 230.500 C 168.769 228.025,168.769 223.975,168.699 221.500 C 168.628 219.025,168.571 221.050,168.571 226.000 M230.566 226.800 C 230.566 230.870,230.625 232.535,230.698 230.500 C 230.771 228.465,230.771 225.135,230.698 223.100 C 230.625 221.065,230.566 222.730,230.566 226.800 M354.955 226.600 C 354.956 229.460,355.020 230.578,355.097 229.083 C 355.174 227.589,355.174 225.249,355.096 223.883 C 355.018 222.518,354.955 223.740,354.955 226.600 M44.153 229.800 C 44.153 232.440,44.218 233.468,44.297 232.084 C 44.375 230.701,44.374 228.541,44.295 227.284 C 44.216 226.028,44.152 227.160,44.153 229.800 M137.368 238.600 C 137.368 243.000,137.426 244.855,137.498 242.721 C 137.570 240.588,137.570 236.988,137.499 234.721 C 137.427 232.455,137.368 234.200,137.368 238.600 M230.894 252.502 L 230.800 270.805 199.700 270.702 L 168.600 270.600 168.390 260.200 C 168.226 252.071,168.158 251.110,168.082 255.800 C 167.975 262.401,168.703 298.050,169.130 307.120 L 169.400 312.839 180.600 312.920 L 191.800 313.000 191.922 314.900 L 192.044 316.800 180.603 316.800 L 169.162 316.800 169.393 327.100 C 169.520 332.765,169.704 340.010,169.802 343.200 C 169.900 346.390,169.984 349.946,169.990 351.103 L 170.000 353.205 199.630 353.103 L 229.260 353.000 229.430 348.200 C 229.523 345.560,229.778 332.510,229.998 319.200 C 230.217 305.890,230.589 287.170,230.824 277.600 C 231.059 268.030,231.192 254.350,231.120 247.200 C 230.998 235.141,230.982 235.525,230.894 252.502 M355.342 240.600 C 355.341 242.580,355.408 243.440,355.492 242.512 C 355.576 241.584,355.577 239.964,355.495 238.912 C 355.412 237.860,355.343 238.620,355.342 240.600 M43.709 245.200 C 43.681 247.950,43.467 254.520,43.232 259.800 C 42.587 274.348,42.169 290.797,42.453 290.481 C 42.592 290.326,42.927 281.380,43.197 270.600 C 43.467 259.820,43.769 250.865,43.868 250.700 C 43.966 250.535,50.990 250.400,59.476 250.400 L 74.905 250.400 74.660 255.700 C 74.525 258.615,74.336 266.040,74.240 272.200 L 74.065 283.400 74.430 274.600 C 74.630 269.760,74.952 264.180,75.143 262.200 L 75.492 258.600 75.546 262.700 L 75.600 266.800 78.153 266.800 C 81.236 266.800,81.206 266.852,81.607 260.800 C 81.862 256.947,81.884 257.164,81.875 263.429 C 81.869 267.184,81.996 270.469,82.156 270.729 C 82.466 271.230,135.279 271.452,136.567 270.957 C 137.101 270.753,137.187 269.984,137.120 266.057 L 137.040 261.400 136.820 266.000 C 136.699 268.530,136.465 270.555,136.300 270.500 C 136.135 270.445,123.913 270.400,109.141 270.400 L 82.281 270.400 82.441 257.100 L 82.600 243.800 63.323 243.696 L 44.046 243.592 43.902 241.896 C 43.823 240.963,43.736 242.450,43.709 245.200 M355.742 255.800 C 355.741 257.780,355.808 258.640,355.892 257.712 C 355.976 256.784,355.977 255.164,355.895 254.112 C 355.812 253.060,355.743 253.820,355.742 255.800 M262.177 265.200 C 262.177 271.690,262.232 274.345,262.299 271.100 C 262.366 267.855,262.366 262.545,262.299 259.300 C 262.232 256.055,262.177 258.710,262.177 265.200 M356.246 274.400 C 356.408 282.925,356.749 295.311,357.427 317.300 L 357.670 325.200 310.447 325.200 L 263.223 325.200 263.099 319.900 C 263.003 315.808,262.955 316.469,262.888 322.800 C 262.840 327.310,262.349 341.440,261.796 354.200 C 260.303 388.633,259.678 405.364,259.873 405.700 C 259.969 405.865,280.111 406.000,304.634 406.000 L 349.220 406.000 349.563 405.099 C 349.751 404.603,349.972 403.028,350.053 401.599 L 350.200 399.000 327.677 398.897 L 305.154 398.793 305.277 397.097 L 305.400 395.400 328.061 395.297 L 350.722 395.193 350.967 392.897 C 351.230 390.436,352.432 378.732,354.408 359.400 C 355.083 352.800,356.171 342.325,356.826 336.122 L 358.017 324.844 357.382 301.522 C 357.033 288.695,356.594 275.230,356.407 271.600 C 356.086 265.381,356.077 265.543,356.246 274.400 M81.779 277.712 C 81.670 277.993,81.635 281.728,81.700 286.012 L 81.818 293.800 81.909 285.703 L 82.000 277.606 109.500 277.500 L 137.000 277.394 109.487 277.297 C 87.438 277.219,81.936 277.302,81.779 277.712 M136.940 281.200 C 136.940 283.070,137.009 283.835,137.093 282.900 C 137.177 281.965,137.177 280.435,137.093 279.500 C 137.009 278.565,136.940 279.330,136.940 281.200 M262.577 296.000 C 262.577 302.490,262.632 305.145,262.699 301.900 C 262.766 298.655,262.766 293.345,262.699 290.100 C 262.632 286.855,262.577 289.510,262.577 296.000 M136.563 291.600 C 136.563 295.230,136.623 296.715,136.698 294.900 C 136.772 293.085,136.772 290.115,136.698 288.300 C 136.623 286.485,136.563 287.970,136.563 291.600 M73.456 295.427 C 73.307 300.391,73.289 304.621,73.416 304.827 C 73.556 305.053,86.046 305.200,105.077 305.200 L 136.508 305.200 136.264 312.100 C 136.129 315.895,136.015 320.394,136.010 322.097 L 136.000 325.193 88.800 325.297 L 41.600 325.400 41.530 323.000 C 41.475 321.122,41.428 320.956,41.310 322.239 C 41.179 323.671,42.489 337.395,45.181 362.800 C 45.612 366.870,46.697 377.580,47.591 386.600 C 48.486 395.620,49.349 403.630,49.509 404.400 L 49.800 405.800 94.600 405.800 L 139.400 405.800 139.279 400.200 C 139.212 397.120,138.897 388.660,138.579 381.400 C 138.262 374.140,138.001 367.885,138.001 367.500 C 138.000 366.858,137.371 366.800,130.400 366.800 L 122.800 366.800 122.800 368.600 L 122.800 370.400 107.400 370.400 L 92.000 370.400 92.000 369.000 C 92.000 368.230,91.955 367.465,91.900 367.300 C 91.845 367.135,93.510 366.910,95.600 366.800 L 99.400 366.600 99.273 364.904 L 99.147 363.208 118.435 363.104 L 137.724 363.000 137.655 359.600 C 137.617 357.730,137.499 354.400,137.393 352.200 C 136.536 334.457,136.346 325.743,136.600 315.902 L 136.887 304.805 105.344 304.702 L 73.800 304.600 73.952 295.500 C 74.035 290.495,74.019 286.400,73.915 286.400 C 73.812 286.400,73.605 290.462,73.456 295.427 M42.249 292.615 C 42.112 292.973,42.035 295.456,42.077 298.133 L 42.154 303.000 42.377 297.600 C 42.619 291.735,42.617 291.657,42.249 292.615 M41.762 311.800 C 41.762 315.320,41.824 316.706,41.898 314.881 C 41.972 313.056,41.972 310.176,41.897 308.481 C 41.822 306.786,41.761 308.280,41.762 311.800 M262.901 313.000 C 262.905 313.880,262.987 314.193,263.083 313.695 C 263.179 313.198,263.175 312.478,263.075 312.095 C 262.975 311.713,262.896 312.120,262.901 313.000 " stroke="none" fill="#0c440c" fill-rule="evenodd"></path><path id="path3" d="M48.243 107.433 C 48.109 107.781,48.000 109.218,48.000 110.626 L 48.000 113.187 93.400 113.197 L 138.800 113.207 138.800 110.003 L 138.800 106.800 93.643 106.800 C 52.834 106.800,48.462 106.861,48.243 107.433 M260.400 110.000 L 260.400 113.200 275.536 113.200 L 290.672 113.200 290.936 122.865 C 291.081 128.180,291.238 136.955,291.284 142.365 C 291.331 147.774,291.428 150.312,291.499 148.005 C 291.613 144.354,292.400 140.997,292.400 144.162 L 292.400 145.285 295.586 145.140 L 298.772 144.995 298.924 148.198 C 299.008 149.959,299.015 148.340,298.940 144.600 C 298.864 140.860,298.710 132.850,298.597 126.800 C 298.484 120.750,298.286 113.775,298.157 111.300 L 297.921 106.800 279.161 106.800 L 260.400 106.800 260.400 110.000 M298.276 143.900 C 298.175 144.285,298.093 143.970,298.093 143.200 C 298.093 142.430,298.175 142.115,298.276 142.500 C 298.376 142.885,298.376 143.515,298.276 143.900 " stroke="none" fill="#04c704" fill-rule="evenodd"></path><path id="path4" d="M33.544 41.300 C 33.513 41.355,33.254 47.970,32.969 56.000 C 32.684 64.030,32.359 71.590,32.247 72.800 C 32.135 74.010,31.657 90.120,31.184 108.600 C 30.710 127.080,30.177 142.560,29.999 143.000 C 29.821 143.440,29.480 151.720,29.241 161.400 C 29.002 171.080,28.608 187.010,28.366 196.800 C 28.123 206.590,27.817 214.870,27.685 215.200 C 27.553 215.530,27.042 228.400,26.549 243.800 C 26.056 259.200,25.290 282.600,24.846 295.800 C 23.726 329.140,23.955 345.119,25.610 349.000 C 25.797 349.440,26.151 352.140,26.395 355.000 C 26.640 357.860,26.948 361.460,27.080 363.000 C 27.212 364.540,27.440 365.890,27.586 366.000 C 27.733 366.110,28.260 370.790,28.758 376.400 C 29.256 382.010,29.817 386.960,30.005 387.400 C 30.192 387.840,30.730 392.520,31.200 397.800 C 31.670 403.080,32.207 407.760,32.393 408.200 C 32.580 408.640,33.024 412.420,33.380 416.600 C 33.736 420.780,34.115 424.605,34.222 425.100 L 34.415 426.000 94.808 426.000 L 155.200 426.000 155.201 412.700 C 155.201 405.385,155.319 393.640,155.463 386.600 L 155.725 373.800 199.663 373.903 L 243.600 374.007 243.622 394.303 C 243.633 405.467,243.624 416.793,243.602 419.474 C 243.573 422.824,243.722 424.606,244.076 425.174 L 244.592 426.000 304.696 426.000 L 364.800 426.000 364.800 424.595 C 364.800 423.822,364.968 422.877,365.172 422.495 C 365.498 421.887,366.181 415.505,367.043 405.000 C 367.188 403.240,367.442 401.620,367.608 401.400 C 367.774 401.180,368.214 397.400,368.586 393.000 C 368.958 388.600,369.415 384.640,369.601 384.200 C 369.788 383.760,370.319 379.170,370.783 374.000 C 371.247 368.830,371.790 364.060,371.989 363.400 C 372.188 362.740,372.735 357.880,373.204 352.600 C 373.674 347.320,374.270 342.566,374.529 342.036 C 375.121 340.824,375.092 296.836,374.499 296.448 C 374.287 296.309,374.009 291.454,373.867 285.400 C 372.993 248.202,372.283 224.894,372.002 224.200 C 371.727 223.522,371.182 205.683,370.169 164.200 C 370.056 159.580,369.799 154.360,369.598 152.600 C 369.396 150.840,368.941 137.430,368.586 122.800 C 368.231 108.170,367.774 95.887,367.570 95.505 C 367.367 95.123,367.197 92.423,367.193 89.505 C 367.189 86.587,366.923 75.560,366.601 65.000 C 366.279 54.440,366.012 44.765,366.008 43.500 L 366.000 41.200 305.200 41.200 L 244.400 41.200 244.400 47.176 C 244.400 50.463,244.241 53.251,244.047 53.371 C 243.854 53.490,243.561 62.141,243.398 72.594 L 243.101 91.600 228.751 91.600 L 214.400 91.600 214.409 102.300 C 214.413 108.185,214.198 119.705,213.930 127.900 L 213.442 142.800 199.321 142.800 L 185.200 142.800 185.200 123.864 C 185.200 113.449,185.082 101.929,184.937 98.264 L 184.674 91.600 170.537 91.600 L 156.400 91.600 156.400 89.200 C 156.400 87.880,156.265 86.800,156.100 86.801 C 155.935 86.801,155.800 86.126,155.800 85.301 C 155.800 78.964,155.133 47.489,154.940 44.700 L 154.697 41.200 94.148 41.200 C 60.847 41.200,33.575 41.245,33.544 41.300 M139.429 87.595 L 139.137 112.790 154.268 112.895 L 169.400 113.000 169.240 138.703 L 169.080 164.405 199.551 164.303 L 230.023 164.200 230.006 138.500 L 229.989 112.800 245.039 112.800 L 260.090 112.800 259.794 90.500 C 259.632 78.235,259.476 66.940,259.449 65.400 L 259.400 62.600 304.578 62.498 C 329.426 62.442,349.881 62.532,350.034 62.698 C 350.187 62.864,350.429 68.310,350.572 74.800 C 350.885 88.942,351.494 108.266,351.802 113.800 C 351.924 116.000,352.378 131.840,352.810 149.000 C 353.242 166.160,353.776 184.430,353.996 189.600 C 354.216 194.770,354.573 205.750,354.789 214.000 C 355.170 228.511,355.362 235.708,355.817 252.600 C 355.935 257.000,356.206 264.830,356.418 270.000 C 356.631 275.170,357.078 289.621,357.412 302.114 L 358.019 324.829 356.827 336.114 C 356.171 342.321,355.083 352.800,354.408 359.400 C 352.432 378.732,351.230 390.436,350.967 392.897 L 350.722 395.193 328.061 395.297 L 305.400 395.400 305.277 397.097 L 305.154 398.793 327.677 398.897 L 350.200 399.000 350.053 401.599 C 349.972 403.028,349.751 404.603,349.563 405.099 L 349.220 406.000 304.634 406.000 C 280.111 406.000,259.969 405.865,259.873 405.700 C 259.676 405.361,260.286 389.093,261.835 353.400 L 262.893 329.000 262.415 294.800 C 261.895 257.542,261.283 217.459,261.232 217.300 C 261.214 217.245,254.352 217.200,245.981 217.200 L 230.762 217.200 231.032 239.300 C 231.197 252.829,231.128 267.760,230.854 277.800 C 230.608 286.820,230.224 305.360,230.001 319.000 C 229.777 332.640,229.518 345.870,229.425 348.400 L 229.255 353.000 199.628 353.103 L 170.000 353.205 169.990 351.103 C 169.984 349.946,169.900 346.390,169.802 343.200 C 169.704 340.010,169.520 332.765,169.393 327.100 L 169.162 316.800 180.603 316.800 L 192.044 316.800 191.922 314.900 L 191.800 313.000 180.600 312.920 L 169.400 312.839 169.127 306.920 C 168.439 292.039,168.039 260.644,168.272 239.900 L 168.527 217.200 153.318 217.200 L 138.108 217.200 137.858 222.500 C 137.720 225.415,137.491 237.430,137.348 249.200 C 137.166 264.181,136.955 270.688,136.644 270.894 C 135.843 271.424,82.486 271.262,82.156 270.729 C 81.996 270.469,81.869 267.184,81.875 263.429 C 81.884 257.164,81.862 256.947,81.607 260.800 C 81.206 266.852,81.236 266.800,78.153 266.800 L 75.600 266.800 75.544 262.700 L 75.488 258.600 75.176 261.800 C 74.815 265.496,74.068 286.361,73.909 297.200 L 73.800 304.600 105.344 304.702 L 136.887 304.805 136.600 315.902 C 136.346 325.743,136.536 334.457,137.393 352.200 C 137.499 354.400,137.617 357.730,137.655 359.600 L 137.724 363.000 118.435 363.104 L 99.147 363.208 99.273 364.904 L 99.400 366.600 95.600 366.800 C 93.510 366.910,91.845 367.135,91.900 367.300 C 91.955 367.465,92.000 368.230,92.000 369.000 L 92.000 370.400 107.400 370.400 L 122.800 370.400 122.800 368.600 L 122.800 366.800 130.400 366.800 C 137.371 366.800,138.000 366.858,138.001 367.500 C 138.001 367.885,138.262 374.140,138.579 381.400 C 138.897 388.660,139.212 397.120,139.279 400.200 L 139.400 405.800 94.600 405.800 L 49.800 405.800 49.509 404.400 C 49.349 403.630,48.486 395.620,47.591 386.600 C 46.697 377.580,45.612 366.870,45.181 362.800 C 44.750 358.730,43.689 348.470,42.823 340.000 L 41.249 324.600 41.606 312.000 C 41.802 305.070,42.059 296.520,42.177 293.000 C 42.294 289.480,42.584 278.680,42.821 269.000 C 43.058 259.320,43.413 250.950,43.609 250.400 C 43.805 249.850,43.924 248.050,43.872 246.400 C 43.791 243.789,44.109 229.069,44.978 195.200 C 45.105 190.250,45.295 184.310,45.400 182.000 C 45.822 172.756,46.038 166.080,46.599 145.000 C 47.472 112.212,47.606 107.590,48.028 95.800 C 48.240 89.860,48.508 81.040,48.622 76.200 C 48.737 71.360,48.928 66.275,49.047 64.900 L 49.264 62.400 94.492 62.400 L 139.720 62.400 139.429 87.595 M136.945 277.800 C 137.071 278.130,137.062 282.810,136.924 288.200 L 136.672 298.000 109.136 298.000 L 81.600 298.000 81.600 287.867 C 81.600 282.293,81.720 277.613,81.867 277.467 C 82.492 276.841,136.702 277.169,136.945 277.800 " stroke="none" fill="#040404" fill-rule="evenodd"></path></g></svg>